<svg width="33" height="33" viewBox="0 0 33 33" fill="none" xmlns="http://www.w3.org/2000/svg">
<rect width="33" height="33" rx="16.5" fill="#2196F3"/>
<path d="M16.5026 8.38461C19.148 8.38461 19.4585 8.39641 20.504 8.44357C21.471 8.48681 21.9938 8.64797 22.3436 8.78554C22.8074 8.96635 23.1376 9.1786 23.4835 9.5245C23.8294 9.8704 24.0456 10.2006 24.2224 10.6644C24.3561 11.0142 24.5212 11.537 24.5644 12.5039C24.6116 13.5495 24.6234 13.86 24.6234 16.5053C24.6234 19.1507 24.6116 19.4612 24.5644 20.5067C24.5212 21.4737 24.36 21.9965 24.2224 22.3463C24.0416 22.8101 23.8294 23.1403 23.4835 23.4862C23.1376 23.8321 22.8074 24.0483 22.3436 24.2251C21.9938 24.3588 21.471 24.5239 20.504 24.5671C19.4585 24.6143 19.148 24.6261 16.5026 24.6261C13.8573 24.6261 13.5468 24.6143 12.5012 24.5671C11.5343 24.5239 11.0115 24.3627 10.6617 24.2251C10.1979 24.0443 9.86769 23.8321 9.52179 23.4862C9.1759 23.1403 8.95971 22.8101 8.78283 22.3463C8.64919 21.9965 8.4841 21.4737 8.44086 20.5067C8.3937 19.4612 8.3819 19.1507 8.3819 16.5053C8.3819 13.86 8.3937 13.5495 8.44086 12.5039C8.4841 11.537 8.64526 11.0142 8.78283 10.6644C8.96364 10.2006 9.1759 9.8704 9.52179 9.5245C9.86769 9.1786 10.1979 8.96242 10.6617 8.78554C11.0115 8.6519 11.5343 8.48681 12.5012 8.44357C13.5468 8.39247 13.8612 8.38461 16.5026 8.38461ZM16.5026 6.6001C13.8141 6.6001 13.476 6.61189 12.4187 6.65906C11.3653 6.70623 10.646 6.87524 10.0171 7.11894C9.36457 7.37051 8.81428 7.71247 8.26398 8.26276C7.71369 8.81305 7.37566 9.36728 7.12016 10.0158C6.87646 10.6447 6.70745 11.364 6.66028 12.4214C6.61311 13.4748 6.60132 13.8128 6.60132 16.5014C6.60132 19.19 6.61311 19.528 6.66028 20.5854C6.70745 21.6388 6.87646 22.3581 7.12016 22.9909C7.37173 23.6434 7.71369 24.1937 8.26398 24.744C8.81428 25.2943 9.3685 25.6323 10.0171 25.8878C10.646 26.1315 11.3653 26.3005 12.4226 26.3477C13.48 26.3949 13.8141 26.4066 16.5066 26.4066C19.1991 26.4066 19.5332 26.3949 20.5905 26.3477C21.6439 26.3005 22.3632 26.1315 22.9961 25.8878C23.6486 25.6362 24.1989 25.2943 24.7491 24.744C25.2994 24.1937 25.6375 23.6395 25.893 22.9909C26.1367 22.362 26.3057 21.6427 26.3529 20.5854C26.4 19.528 26.4118 19.1939 26.4118 16.5014C26.4118 13.8089 26.4 13.4748 26.3529 12.4175C26.3057 11.364 26.1367 10.6447 25.893 10.0119C25.6414 9.35941 25.2994 8.80912 24.7491 8.25883C24.1989 7.70854 23.6446 7.37051 22.9961 7.11501C22.3672 6.87131 21.6479 6.70229 20.5905 6.65513C19.5292 6.61189 19.1912 6.6001 16.5026 6.6001Z" fill="white"/>
<path d="M16.5025 11.4189C13.696 11.4189 11.4163 13.6948 11.4163 16.5052C11.4163 19.3156 13.6921 21.5915 16.5025 21.5915C19.3129 21.5915 21.5888 19.3156 21.5888 16.5052C21.5888 13.6948 19.3129 11.4189 16.5025 11.4189ZM16.5025 19.803C14.6787 19.803 13.2008 18.3251 13.2008 16.5013C13.2008 14.6775 14.6787 13.1995 16.5025 13.1995C18.3263 13.1995 19.8043 14.6775 19.8043 16.5013C19.8043 18.3251 18.3263 19.803 16.5025 19.803Z" fill="white"/>
<path d="M21.7894 12.4017C22.4449 12.4017 22.9764 11.8702 22.9764 11.2146C22.9764 10.5591 22.4449 10.0276 21.7894 10.0276C21.1338 10.0276 20.6023 10.5591 20.6023 11.2146C20.6023 11.8702 21.1338 12.4017 21.7894 12.4017Z" fill="white"/>
</svg>
