<svg width="33" height="33" viewBox="0 0 33 33" fill="none" xmlns="http://www.w3.org/2000/svg">
<rect width="33" height="33" rx="16.5" fill="#2196F3"/>
<path d="M24.2352 7.42505H8.76487C8.40953 7.42505 8.06874 7.56621 7.81747 7.81747C7.56621 8.06874 7.42505 8.40953 7.42505 8.76487V24.2352C7.42505 24.5906 7.56621 24.9314 7.81747 25.1826C8.06874 25.4339 8.40953 25.5751 8.76487 25.5751H24.2352C24.5906 25.5751 24.9314 25.4339 25.1826 25.1826C25.4339 24.9314 25.5751 24.5906 25.5751 24.2352V8.76487C25.5751 8.40953 25.4339 8.06874 25.1826 7.81747C24.9314 7.56621 24.5906 7.42505 24.2352 7.42505ZM12.8348 22.8866H10.106V14.2187H12.8348V22.8866ZM11.4685 13.0175C11.1589 13.0158 10.8568 12.9224 10.6003 12.7491C10.3438 12.5759 10.1444 12.3305 10.0272 12.044C9.91002 11.7575 9.88033 11.4427 9.94187 11.1393C10.0034 10.836 10.1534 10.5576 10.373 10.3395C10.5926 10.1213 10.8719 9.97306 11.1756 9.91346C11.4794 9.85386 11.794 9.88558 12.0797 10.0046C12.3655 10.1236 12.6096 10.3246 12.7812 10.5823C12.9528 10.8399 13.0442 11.1425 13.044 11.4521C13.0469 11.6593 13.0081 11.865 12.9298 12.0569C12.8515 12.2488 12.7354 12.423 12.5884 12.5691C12.4414 12.7152 12.2664 12.8302 12.074 12.9072C11.8816 12.9843 11.6757 13.0218 11.4685 13.0175ZM22.8929 22.8941H20.1653V18.1588C20.1653 16.7622 19.5717 16.3312 18.8054 16.3312C17.9962 16.3312 17.2021 16.9412 17.2021 18.1941V22.8941H14.4733V14.225H17.0975V15.4262H17.1328C17.3962 14.893 18.3188 13.9817 19.7267 13.9817C21.2493 13.9817 22.8941 14.8855 22.8941 17.5323L22.8929 22.8941Z" fill="white"/>
</svg>
