<svg width="32" height="40" viewBox="0 0 32 40" fill="none" xmlns="http://www.w3.org/2000/svg">
<path d="M20 0H4C2.93913 0 1.92172 0.421427 1.17157 1.17157C0.421427 1.92172 0 2.93913 0 4V36C0 37.0609 0.421427 38.0783 1.17157 38.8284C1.92172 39.5786 2.93913 40 4 40H28C29.0609 40 30.0783 39.5786 30.8284 38.8284C31.5786 38.0783 32 37.0609 32 36V12L20 0ZM11.996 25.536H9.79V32.084H7.956V25.536H5.786V24H11.996V25.536ZM17.446 32.084L16.716 30.622C16.416 30.058 16.224 29.638 15.998 29.17H15.972C15.806 29.636 15.602 30.056 15.348 30.622L14.678 32.084H12.588L14.93 27.994L12.672 24H14.772L15.48 25.476C15.722 25.966 15.9 26.362 16.092 26.818H16.118C16.31 26.302 16.466 25.942 16.67 25.476L17.352 24H19.438L17.16 27.946L19.556 32.084H17.446ZM26.214 25.536H24.006V32.084H22.172V25.536H20.002V24H26.212L26.214 25.536ZM20 14H18V4L28 14H20Z" fill="#2196F3"/>
</svg>
