<svg width="34" height="32" viewBox="0 0 34 32" fill="none" xmlns="http://www.w3.org/2000/svg">
<path d="M8.79993 13.4335C8.73444 13.4335 8.66997 13.4173 8.61223 13.3865C8.55449 13.3556 8.50527 13.3109 8.46894 13.2564C8.43261 13.2019 8.41029 13.1393 8.40396 13.0741C8.39763 13.009 8.40749 12.9432 8.43267 12.8828L10.026 9.05275C10.0665 8.95524 10.1441 8.87781 10.2417 8.83751C10.3393 8.79721 10.4489 8.79733 10.5464 8.83785C10.6439 8.87836 10.7214 8.95595 10.7617 9.05355C10.802 9.15115 10.8018 9.26076 10.7613 9.35827L9.16735 13.1883C9.13719 13.2609 9.0862 13.3229 9.0208 13.3666C8.95541 13.4102 8.87855 13.4335 8.79993 13.4335Z" fill="#65C1D6"/>
<path d="M12.7722 13.4205C12.6935 13.4206 12.6166 13.3972 12.5511 13.3535C12.4857 13.3098 12.4347 13.2477 12.4046 13.175C12.3744 13.1023 12.3666 13.0223 12.3819 12.9451C12.3973 12.8679 12.4352 12.797 12.4908 12.7414L14.1117 11.1205L12.4908 9.49997C12.4528 9.46327 12.4225 9.41938 12.4017 9.37084C12.3808 9.32231 12.3699 9.27011 12.3694 9.21728C12.3689 9.16446 12.379 9.11208 12.399 9.06319C12.419 9.0143 12.4486 8.96988 12.4859 8.93253C12.5233 8.89517 12.5677 8.86564 12.6166 8.84563C12.6655 8.82563 12.7178 8.81557 12.7707 8.81602C12.8235 8.81648 12.8757 8.82746 12.9242 8.84831C12.9728 8.86916 13.0166 8.89946 13.0533 8.93746L14.9554 10.8395C15.03 10.9141 15.0719 11.0153 15.0719 11.1208C15.0719 11.2262 15.03 11.3274 14.9554 11.402L13.054 13.3039C13.017 13.341 12.9731 13.3704 12.9247 13.3904C12.8764 13.4104 12.8245 13.4207 12.7722 13.4205Z" fill="#65C1D6"/>
<path d="M6.42363 13.4203C6.3714 13.4203 6.31966 13.41 6.27141 13.39C6.22316 13.37 6.17934 13.3407 6.14246 13.3037L4.24025 11.4016C4.16568 11.327 4.12378 11.2258 4.12378 11.1204C4.12378 11.0149 4.16568 10.9137 4.24025 10.8391L6.14246 8.93706C6.17907 8.89867 6.22299 8.86798 6.27164 8.84682C6.32028 8.82565 6.37267 8.81443 6.42572 8.81381C6.47877 8.81319 6.5314 8.82319 6.58053 8.84321C6.62966 8.86324 6.67428 8.89289 6.71178 8.93042C6.74927 8.96795 6.77889 9.0126 6.79887 9.06174C6.81886 9.11089 6.82881 9.16353 6.82815 9.21658C6.82748 9.26962 6.81621 9.322 6.79501 9.37063C6.7738 9.41926 6.74308 9.46315 6.70465 9.49973L5.0841 11.1203L6.70465 12.7411C6.7603 12.7968 6.7982 12.8677 6.81356 12.9449C6.82892 13.022 6.82104 13.102 6.79092 13.1747C6.76081 13.2474 6.70981 13.3096 6.64437 13.3533C6.57894 13.397 6.50201 13.4203 6.42332 13.4203H6.42363Z" fill="#65C1D6"/>
<path d="M6.19641 16.9392H4.5216C4.41609 16.9392 4.3149 16.8973 4.2403 16.8227C4.16569 16.7481 4.12378 16.6469 4.12378 16.5414C4.12378 16.4359 4.16569 16.3347 4.2403 16.2601C4.3149 16.1855 4.41609 16.1436 4.5216 16.1436H6.19641C6.30191 16.1436 6.4031 16.1855 6.47771 16.2601C6.55231 16.3347 6.59422 16.4359 6.59422 16.5414C6.59422 16.6469 6.55231 16.7481 6.47771 16.8227C6.4031 16.8973 6.30191 16.9392 6.19641 16.9392Z" fill="#65C1D6"/>
<path d="M6.19641 23.9584H4.5216C4.41609 23.9584 4.3149 23.9165 4.2403 23.8419C4.16569 23.7673 4.12378 23.6661 4.12378 23.5606C4.12378 23.4551 4.16569 23.3539 4.2403 23.2793C4.3149 23.2047 4.41609 23.1628 4.5216 23.1628H6.19641C6.30191 23.1628 6.4031 23.2047 6.47771 23.2793C6.55231 23.3539 6.59422 23.4551 6.59422 23.5606C6.59422 23.6661 6.55231 23.7673 6.47771 23.8419C6.4031 23.9165 6.30191 23.9584 6.19641 23.9584Z" fill="#65C1D6"/>
<path d="M33.6022 0H0.397817C0.29231 0 0.191123 0.0419128 0.116518 0.116518C0.0419128 0.191123 0 0.292309 0 0.397817V31.2366C0 31.3421 0.0419128 31.4433 0.116518 31.5179C0.191123 31.5925 0.29231 31.6344 0.397817 31.6344H33.6022C33.7077 31.6344 33.8089 31.5925 33.8835 31.5179C33.9581 31.4433 34 31.3421 34 31.2366V0.397817C34 0.292309 33.9581 0.191123 33.8835 0.116518C33.8089 0.0419128 33.7077 0 33.6022 0ZM33.2044 0.795634V4.21686H0.795634V0.795634H33.2044ZM0.795634 30.8388V5.0125H33.2044V30.8388H0.795634Z" fill="#846F75"/>
<path d="M2.83776 2.8643H4.58815C4.69366 2.8643 4.79485 2.82239 4.86945 2.74778C4.94406 2.67318 4.98597 2.57199 4.98597 2.46648C4.98597 2.36097 4.94406 2.25979 4.86945 2.18518C4.79485 2.11058 4.69366 2.06866 4.58815 2.06866H2.83776C2.73225 2.06866 2.63106 2.11058 2.55646 2.18518C2.48185 2.25979 2.43994 2.36097 2.43994 2.46648C2.43994 2.57199 2.48185 2.67318 2.55646 2.74778C2.63106 2.82239 2.73225 2.8643 2.83776 2.8643Z" fill="#846F75"/>
<path d="M6.5902 2.8643H8.3406C8.4461 2.8643 8.54729 2.82239 8.6219 2.74778C8.6965 2.67318 8.73841 2.57199 8.73841 2.46648C8.73841 2.36097 8.6965 2.25979 8.6219 2.18518C8.54729 2.11058 8.4461 2.06866 8.3406 2.06866H6.5902C6.48469 2.06866 6.38351 2.11058 6.3089 2.18518C6.2343 2.25979 6.19238 2.36097 6.19238 2.46648C6.19238 2.57199 6.2343 2.67318 6.3089 2.74778C6.38351 2.82239 6.48469 2.8643 6.5902 2.8643Z" fill="#846F75"/>
<path d="M10.3424 2.8643H12.0928C12.1983 2.8643 12.2995 2.82239 12.3741 2.74778C12.4487 2.67318 12.4906 2.57199 12.4906 2.46648C12.4906 2.36097 12.4487 2.25979 12.3741 2.18518C12.2995 2.11058 12.1983 2.06866 12.0928 2.06866H10.3424C10.2369 2.06866 10.1357 2.11058 10.0611 2.18518C9.98649 2.25979 9.94458 2.36097 9.94458 2.46648C9.94458 2.57199 9.98649 2.67318 10.0611 2.74778C10.1357 2.82239 10.2369 2.8643 10.3424 2.8643Z" fill="#846F75"/>
<path d="M29.358 2.8643H31.1084C31.2139 2.8643 31.3151 2.82239 31.3897 2.74778C31.4643 2.67318 31.5062 2.57199 31.5062 2.46648C31.5062 2.36097 31.4643 2.25979 31.3897 2.18518C31.3151 2.11058 31.2139 2.06866 31.1084 2.06866H29.358C29.2525 2.06866 29.1513 2.11058 29.0767 2.18518C29.0021 2.25979 28.9602 2.36097 28.9602 2.46648C28.9602 2.57199 29.0021 2.67318 29.0767 2.74778C29.1513 2.82239 29.2525 2.8643 29.358 2.8643Z" fill="#846F75"/>
<path d="M7.78722 16.9392H13.7279C13.8334 16.9392 13.9346 16.8973 14.0092 16.8227C14.0838 16.7481 14.1257 16.6469 14.1257 16.5414C14.1257 16.4359 14.0838 16.3347 14.0092 16.2601C13.9346 16.1855 13.8334 16.1436 13.7279 16.1436H7.78722C7.68171 16.1436 7.58053 16.1855 7.50592 16.2601C7.43132 16.3347 7.3894 16.4359 7.3894 16.5414C7.3894 16.6469 7.43132 16.7481 7.50592 16.8227C7.58053 16.8973 7.68171 16.9392 7.78722 16.9392Z" fill="#846F75"/>
<path d="M7.78722 23.9584H9.16637C9.27188 23.9584 9.37307 23.9165 9.44767 23.8419C9.52228 23.7673 9.56419 23.6661 9.56419 23.5606C9.56419 23.4551 9.52228 23.3539 9.44767 23.2793C9.37307 23.2047 9.27188 23.1628 9.16637 23.1628H7.78722C7.68171 23.1628 7.58053 23.2047 7.50592 23.2793C7.43132 23.3539 7.3894 23.4551 7.3894 23.5606C7.3894 23.6661 7.43132 23.7673 7.50592 23.8419C7.58053 23.9165 7.68171 23.9584 7.78722 23.9584Z" fill="#846F75"/>
<path d="M14.4042 23.1628H10.7579C10.6524 23.1628 10.5512 23.2047 10.4766 23.2793C10.402 23.3539 10.3601 23.4551 10.3601 23.5606C10.3601 23.6661 10.402 23.7673 10.4766 23.8419C10.5512 23.9165 10.6524 23.9584 10.7579 23.9584H14.4042C14.5097 23.9584 14.6108 23.9165 14.6855 23.8419C14.7601 23.7673 14.802 23.6661 14.802 23.5606C14.802 23.4551 14.7601 23.3539 14.6855 23.2793C14.6108 23.2047 14.5097 23.1628 14.4042 23.1628Z" fill="#846F75"/>
<path d="M13.185 25.5018H7.78722C7.68171 25.5018 7.58053 25.5437 7.50592 25.6183C7.43132 25.6929 7.3894 25.7941 7.3894 25.8996C7.3894 26.0051 7.43132 26.1063 7.50592 26.1809C7.58053 26.2555 7.68171 26.2974 7.78722 26.2974H13.185C13.2905 26.2974 13.3917 26.2555 13.4663 26.1809C13.5409 26.1063 13.5828 26.0051 13.5828 25.8996C13.5828 25.7941 13.5409 25.6929 13.4663 25.6183C13.3917 25.5437 13.2905 25.5018 13.185 25.5018Z" fill="#846F75"/>
<path d="M7.78722 19.2797H11.1023C11.2078 19.2797 11.309 19.2378 11.3836 19.1632C11.4582 19.0886 11.5001 18.9874 11.5001 18.8819C11.5001 18.7764 11.4582 18.6752 11.3836 18.6006C11.309 18.526 11.2078 18.4841 11.1023 18.4841H7.78722C7.68171 18.4841 7.58053 18.526 7.50592 18.6006C7.43132 18.6752 7.3894 18.7764 7.3894 18.8819C7.3894 18.9874 7.43132 19.0886 7.50592 19.1632C7.58053 19.2378 7.68171 19.2797 7.78722 19.2797Z" fill="#846F75"/>
<path d="M16.8584 18.4841H12.693C12.5875 18.4841 12.4863 18.526 12.4117 18.6006C12.3371 18.6752 12.2952 18.7764 12.2952 18.8819C12.2952 18.9874 12.3371 19.0886 12.4117 19.1632C12.4863 19.2378 12.5875 19.2797 12.693 19.2797H16.8584C16.964 19.2797 17.0651 19.2378 17.1397 19.1632C17.2144 19.0886 17.2563 18.9874 17.2563 18.8819C17.2563 18.7764 17.2144 18.6752 17.1397 18.6006C17.0651 18.526 16.964 18.4841 16.8584 18.4841Z" fill="#846F75"/>
<path d="M7.78722 21.6188H11.1023C11.2078 21.6188 11.309 21.5769 11.3836 21.5023C11.4582 21.4277 11.5001 21.3265 11.5001 21.221C11.5001 21.1155 11.4582 21.0143 11.3836 20.9397C11.309 20.8651 11.2078 20.8232 11.1023 20.8232H7.78722C7.68171 20.8232 7.58053 20.8651 7.50592 20.9397C7.43132 21.0143 7.3894 21.1155 7.3894 21.221C7.3894 21.3265 7.43132 21.4277 7.50592 21.5023C7.58053 21.5769 7.68171 21.6188 7.78722 21.6188Z" fill="#846F75"/>
<path d="M15.6306 20.8232H12.693C12.5875 20.8232 12.4863 20.8651 12.4117 20.9397C12.3371 21.0143 12.2952 21.1155 12.2952 21.221C12.2952 21.3265 12.3371 21.4277 12.4117 21.5023C12.4863 21.5769 12.5875 21.6188 12.693 21.6188H15.6306C15.7361 21.6188 15.8373 21.5769 15.9119 21.5023C15.9865 21.4277 16.0284 21.3265 16.0284 21.221C16.0284 21.1155 15.9865 21.0143 15.9119 20.9397C15.8373 20.8651 15.7361 20.8232 15.6306 20.8232Z" fill="#846F75"/>
<path d="M28.8065 7.21301H19.7203C19.6148 7.21301 19.5136 7.25493 19.439 7.32953C19.3644 7.40414 19.3225 7.50532 19.3225 7.61083V16.697C19.3225 16.8025 19.3644 16.9037 19.439 16.9783C19.5136 17.0529 19.6148 17.0948 19.7203 17.0948H28.8065C28.912 17.0948 29.0132 17.0529 29.0878 16.9783C29.1624 16.9037 29.2043 16.8025 29.2043 16.697V7.61083C29.2043 7.50532 29.1624 7.40414 29.0878 7.32953C29.0132 7.25493 28.912 7.21301 28.8065 7.21301ZM20.1181 8.57116L23.701 12.1541L20.1178 15.7376L20.1181 8.57116ZM20.6807 8.00865H27.8466L24.2637 11.5915L20.6807 8.00865ZM24.2637 12.7167L27.8465 16.2995H20.6805L24.2637 12.7167ZM24.8262 12.1541L28.409 8.57132V15.7376L24.8262 12.1541Z" fill="#65C1D6"/>
<path d="M31.1625 18.1594H25.9908C25.8853 18.1594 25.7841 18.2013 25.7095 18.2759C25.6349 18.3505 25.593 18.4517 25.593 18.5572V23.7288C25.593 23.8343 25.6349 23.9355 25.7095 24.0101C25.7841 24.0847 25.8853 24.1267 25.9908 24.1267H31.1625C31.268 24.1267 31.3692 24.0847 31.4438 24.0101C31.5184 23.9355 31.5603 23.8343 31.5603 23.7288V18.5572C31.5603 18.4517 31.5184 18.3505 31.4438 18.2759C31.3692 18.2013 31.268 18.1594 31.1625 18.1594ZM26.3887 19.5175L28.0141 21.143L26.3887 22.7685V19.5175ZM26.9512 18.955H30.2021L28.5766 20.5805L26.9512 18.955ZM28.5766 21.7051L30.2021 23.3305H26.9512L28.5766 21.7051ZM29.1392 21.1425L30.7646 19.5175V22.7685L29.1392 21.1425Z" fill="#65C1D6"/>
<path d="M24.1943 23.3317H19.7203C19.6148 23.3317 19.5136 23.3736 19.439 23.4482C19.3644 23.5228 19.3225 23.624 19.3225 23.7295V28.2034C19.3225 28.3089 19.3644 28.4101 19.439 28.4847C19.5136 28.5593 19.6148 28.6012 19.7203 28.6012H24.1943C24.2998 28.6012 24.401 28.5593 24.4756 28.4847C24.5502 28.4101 24.5922 28.3089 24.5922 28.2034V23.7295C24.5922 23.624 24.5502 23.5228 24.4756 23.4482C24.401 23.3736 24.2998 23.3317 24.1943 23.3317ZM20.1181 24.6899L21.3948 25.9664L20.1181 27.2434V24.6899ZM20.6807 24.1274H23.234L21.9573 25.4039L20.6807 24.1274ZM21.9573 26.5291L23.234 27.8056H20.6807L21.9573 26.5291ZM22.5198 25.9664L23.7965 24.6899V27.2434L22.5198 25.9664Z" fill="#65C1D6"/>
</svg>
