<svg width="56" height="39" viewBox="0 0 56 39" fill="none" xmlns="http://www.w3.org/2000/svg">
<g filter="url(#filter0_d_205_1250)">
<g clip-path="url(#clip0_205_1250)">
<path d="M4 0.58551H52V30.0049H4V0.58551Z" fill="white"/>
<path d="M28 22.2629C31.8481 22.2629 34.9677 19.1434 34.9677 15.2952C34.9677 11.447 31.8481 8.32745 28 8.32745C24.1518 8.32745 21.0322 11.447 21.0322 15.2952C21.0322 19.1434 24.1518 22.2629 28 22.2629Z" fill="#D22F27"/>
<path d="M21.9049 11.9476C21.4823 12.7542 21.3929 13.6942 21.6559 14.5659C21.9189 15.4376 22.5132 16.1715 23.3113 16.6098C24.1093 17.0481 25.0474 17.1559 25.9242 16.9101C26.8009 16.6644 27.5462 16.0846 28.0001 15.2953C28.0179 15.2643 28.0264 15.231 28.0427 15.2L28.0613 15.2109C28.54 14.4333 29.3052 13.8752 30.1919 13.657C31.0785 13.4387 32.0153 13.5779 32.8003 14.0443C33.5852 14.5108 34.1553 15.2671 34.3874 16.1502C34.6196 17.0333 34.4952 17.9722 34.0411 18.7644L34.0435 18.766C33.5958 19.5631 32.9955 20.2641 32.2768 20.8292C31.5582 21.3943 30.7352 21.8123 29.8551 22.0594C28.0774 22.5583 26.1744 22.3306 24.5646 21.4265C22.9548 20.5223 21.7702 19.0157 21.2712 17.2381C20.7723 15.4604 20.9999 13.5574 21.9041 11.9476H21.9049ZM22.0628 11.6465L22.0783 11.655C22.0551 11.6906 22.0264 11.7208 22.0048 11.758C22.0257 11.7216 22.0411 11.6821 22.0628 11.6465Z" fill="#1E50A0"/>
<path d="M18.8893 19.8646L21.2119 23.8873M16.2075 21.4129L18.5301 25.4356M17.5484 20.6387L18.3226 21.9796M19.0968 23.3206L19.871 24.6615M35.3549 24.6615L36.1291 23.3206M36.9033 21.9796L37.6775 20.6387M36.6958 25.4356L37.47 24.0947M38.2442 22.7538L39.0184 21.4129M34.014 23.8873L34.7882 22.5464M35.5624 21.2055L36.3366 19.8646M16.2075 9.17759L18.5301 5.15488M17.5484 9.95178L19.871 5.92907M18.8893 10.726L21.2119 6.70326M34.7882 6.70326L35.5624 8.04417M36.3366 9.38507L37.1107 10.726M37.47 5.15488L38.2442 6.49578M39.0184 7.83668L39.7926 9.17759M36.1291 5.92907L38.4516 9.95178" stroke="black" stroke-linecap="round" stroke-linejoin="round"/>
</g>
</g>
<defs>
<filter id="filter0_d_205_1250" x="0" y="0.58551" width="56" height="37.4193" filterUnits="userSpaceOnUse" color-interpolation-filters="sRGB">
<feFlood flood-opacity="0" result="BackgroundImageFix"/>
<feColorMatrix in="SourceAlpha" type="matrix" values="0 0 0 0 0 0 0 0 0 0 0 0 0 0 0 0 0 0 127 0" result="hardAlpha"/>
<feOffset dy="4"/>
<feGaussianBlur stdDeviation="2"/>
<feComposite in2="hardAlpha" operator="out"/>
<feColorMatrix type="matrix" values="0 0 0 0 0 0 0 0 0 0 0 0 0 0 0 0 0 0 0.25 0"/>
<feBlend mode="normal" in2="BackgroundImageFix" result="effect1_dropShadow_205_1250"/>
<feBlend mode="normal" in="SourceGraphic" in2="effect1_dropShadow_205_1250" result="shape"/>
</filter>
<clipPath id="clip0_205_1250">
<rect x="4" y="0.58551" width="48" height="29.4194" rx="5" fill="white"/>
</clipPath>
</defs>
</svg>
