<svg width="48" height="30" viewBox="0 0 48 30" fill="none" xmlns="http://www.w3.org/2000/svg">
<g clip-path="url(#clip0_205_1224)">
<path d="M0 0H48.7869V29.9016H0V0Z" fill="white"/>
<path d="M0 0H48.7869V3.93442H0V0ZM0 7.08196H48.7869V10.2295H0V7.08196ZM0 13.377H48.7869V16.5246H0V13.377Z" fill="#D22F27"/>
<path d="M0 0H25.1803V16.5246H0V0Z" fill="#1E50A0"/>
<path d="M0 19.6721H48.7869V22.8197H0V19.6721Z" fill="#D22F27"/>
<path d="M3.14756 5.31147C3.90808 5.31147 4.52461 4.69495 4.52461 3.93443C4.52461 3.1739 3.90808 2.55738 3.14756 2.55738C2.38703 2.55738 1.77051 3.1739 1.77051 3.93443C1.77051 4.69495 2.38703 5.31147 3.14756 5.31147Z" fill="white"/>
<path d="M9.44248 5.31147C10.203 5.31147 10.8195 4.69495 10.8195 3.93443C10.8195 3.1739 10.203 2.55738 9.44248 2.55738C8.68196 2.55738 8.06543 3.1739 8.06543 3.93443C8.06543 4.69495 8.68196 5.31147 9.44248 5.31147Z" fill="white"/>
<path d="M15.7379 5.31147C16.4984 5.31147 17.1149 4.69495 17.1149 3.93443C17.1149 3.1739 16.4984 2.55738 15.7379 2.55738C14.9774 2.55738 14.3608 3.1739 14.3608 3.93443C14.3608 4.69495 14.9774 5.31147 15.7379 5.31147Z" fill="white"/>
<path d="M22.0328 5.31147C22.7933 5.31147 23.4099 4.69495 23.4099 3.93443C23.4099 3.1739 22.7933 2.55738 22.0328 2.55738C21.2723 2.55738 20.6558 3.1739 20.6558 3.93443C20.6558 4.69495 21.2723 5.31147 22.0328 5.31147Z" fill="white"/>
<path d="M18.8853 8.45902C19.6459 8.45902 20.2624 7.84249 20.2624 7.08197C20.2624 6.32144 19.6459 5.70492 18.8853 5.70492C18.1248 5.70492 17.5083 6.32144 17.5083 7.08197C17.5083 7.84249 18.1248 8.45902 18.8853 8.45902Z" fill="white"/>
<path d="M12.5899 8.45902C13.3505 8.45902 13.967 7.84249 13.967 7.08197C13.967 6.32144 13.3505 5.70492 12.5899 5.70492C11.8294 5.70492 11.2129 6.32144 11.2129 7.08197C11.2129 7.84249 11.8294 8.45902 12.5899 8.45902Z" fill="white"/>
<path d="M6.29502 8.45902C7.05554 8.45902 7.67207 7.84249 7.67207 7.08197C7.67207 6.32144 7.05554 5.70492 6.29502 5.70492C5.53449 5.70492 4.91797 6.32144 4.91797 7.08197C4.91797 7.84249 5.53449 8.45902 6.29502 8.45902Z" fill="white"/>
<path d="M3.14756 11.6066C3.90808 11.6066 4.52461 10.99 4.52461 10.2295C4.52461 9.46898 3.90808 8.85246 3.14756 8.85246C2.38703 8.85246 1.77051 9.46898 1.77051 10.2295C1.77051 10.99 2.38703 11.6066 3.14756 11.6066Z" fill="white"/>
<path d="M9.44248 11.6066C10.203 11.6066 10.8195 10.99 10.8195 10.2295C10.8195 9.46898 10.203 8.85246 9.44248 8.85246C8.68196 8.85246 8.06543 9.46898 8.06543 10.2295C8.06543 10.99 8.68196 11.6066 9.44248 11.6066Z" fill="white"/>
<path d="M15.7379 11.6066C16.4984 11.6066 17.1149 10.99 17.1149 10.2295C17.1149 9.46898 16.4984 8.85246 15.7379 8.85246C14.9774 8.85246 14.3608 9.46898 14.3608 10.2295C14.3608 10.99 14.9774 11.6066 15.7379 11.6066Z" fill="white"/>
<path d="M22.0328 11.6066C22.7933 11.6066 23.4099 10.99 23.4099 10.2295C23.4099 9.46898 22.7933 8.85246 22.0328 8.85246C21.2723 8.85246 20.6558 9.46898 20.6558 10.2295C20.6558 10.99 21.2723 11.6066 22.0328 11.6066Z" fill="white"/>
<path d="M18.8853 14.7541C19.6459 14.7541 20.2624 14.1376 20.2624 13.377C20.2624 12.6165 19.6459 12 18.8853 12C18.1248 12 17.5083 12.6165 17.5083 13.377C17.5083 14.1376 18.1248 14.7541 18.8853 14.7541Z" fill="white"/>
<path d="M12.5899 14.7541C13.3505 14.7541 13.967 14.1376 13.967 13.377C13.967 12.6165 13.3505 12 12.5899 12C11.8294 12 11.2129 12.6165 11.2129 13.377C11.2129 14.1376 11.8294 14.7541 12.5899 14.7541Z" fill="white"/>
<path d="M6.29502 14.7541C7.05554 14.7541 7.67207 14.1376 7.67207 13.377C7.67207 12.6165 7.05554 12 6.29502 12C5.53449 12 4.91797 12.6165 4.91797 13.377C4.91797 14.1376 5.53449 14.7541 6.29502 14.7541Z" fill="white"/>
<path d="M0 25.9672H48.7869V29.9016H0V25.9672Z" fill="#D22F27"/>
</g>
<defs>
<clipPath id="clip0_205_1224">
<rect width="48" height="29.9016" rx="5" fill="white"/>
</clipPath>
</defs>
</svg>
