<svg width="48" height="33" viewBox="0 0 48 33" fill="none" xmlns="http://www.w3.org/2000/svg">
<g clip-path="url(#clip0_205_1256)">
<path d="M0 0.90163H48V32.1016H0V0.90163Z" fill="#5C9E31"/>
<path d="M0 0.90163H49.6V11.3016H0V0.90163Z" fill="#E27022"/>
<path d="M0 11.3016H49.6V20.9016H0V11.3016Z" fill="white"/>
<path d="M25.0369 15.2184L26.4001 13.3304L25.4465 15.4552L27.5713 14.5016L25.6833 15.8648L28.0001 16.1016L25.6833 16.3384L27.5713 17.7016L25.4465 16.748L26.4001 18.8728L25.0369 16.9848L24.8001 19.3016L24.5633 16.9848L23.2001 18.8728L24.1537 16.748L22.0289 17.7016L23.9169 16.3384L21.6001 16.1016L23.9169 15.8648L22.0289 14.5016L24.1537 15.4552L23.2001 13.3304L24.5633 15.2184L24.8001 12.9016L25.0369 15.2184Z" stroke="#1E50A0" stroke-linecap="round" stroke-linejoin="round"/>
<path d="M24.7998 20.1016C27.0089 20.1016 28.7998 18.3108 28.7998 16.1016C28.7998 13.8925 27.0089 12.1016 24.7998 12.1016C22.5907 12.1016 20.7998 13.8925 20.7998 16.1016C20.7998 18.3108 22.5907 20.1016 24.7998 20.1016Z" stroke="#1E50A0" stroke-linecap="round" stroke-linejoin="round"/>
</g>
<defs>
<clipPath id="clip0_205_1256">
<rect y="0.90163" width="48" height="31.2" rx="5" fill="white"/>
</clipPath>
</defs>
</svg>
